# xmcd CD database file
#
# Track frame offsets:
#	150
#	7940
#	17947
#	28022
#	46751
#	58233
#	81543
#	90114
#	104555
#	120301
#	126873
#	137203
#	146270
#	152800
#	162428
#	172945
#	186813
#
# Disc length: 2800 seconds
#
# Revision: 0
# Processed by: cddbd v1.5.2PL0 Copyright (c) Steve Scherf et al.
# Submitted via: CDex 1.51
#
DISCID=d90aee11
DTITLE=Russ Hopkins and Jerry Palmer - Moon Dreaming
DYEAR=2007
DGENRE=New Age
TTITLE0=Shadow Dance
TTITLE1=Offering
TTITLE2=Swami
TTITLE3=Inner Circle
TTITLE4=Canyon Spirit
TTITLE5=Dreaming
TTITLE6=The Holy Grail
TTITLE7=Mendacity
TTITLE8=Cat Dancing
TTITLE9=Running Towards Dawn
TTITLE10=Take Me To The Sun
TTITLE11=Mandala
TTITLE12=The Hermit
TTITLE13=Three Steps Back
TTITLE14=Twilight
TTITLE15=The Golden World
TTITLE16=Spring
EXTD=YEAR: 2007
EXTT0=
EXTT1=
EXTT2=
EXTT3=
EXTT4=
EXTT5=
EXTT6=
EXTT7=
EXTT8=
EXTT9=
EXTT10=
EXTT11=
EXTT12=
EXTT13=
EXTT14=
EXTT15=
EXTT16=
PLAYORDER=
